<svg xmlns="http://www.w3.org/2000/svg" width="823" height="215" fill="none" viewBox="0 0 823 215"><g fill="#000" clip-path="url(#a)"><path d="M124.231 203.544c-8.68 0-15.405-4.311-16.152-13.163h5.69c.69 5.518 4.886 8.277 10.462 8.277 5.174 0 9.485-2.357 9.485-6.553 0-3.794-3.506-5.518-8.795-6.668l-4.311-.977c-7.415-1.667-11.267-5.059-11.267-10.922 0-6.955 6.553-11.784 14.543-11.784 7.991 0 14.141 4.369 14.888 12.072h-5.633c-.632-4.369-4.081-7.128-9.255-7.128-4.828 0-8.909 2.586-8.909 6.38 0 3.449 2.356 4.886 7.185 5.921l4.886 1.092c7.473 1.667 12.416 4.944 12.416 11.439 0 8.105-7.473 12.014-15.233 12.014m36.967-.057c-4.599 0-8.048-2.3-9.715-5.231v15.52h-5.403v-40.698h5.403v4.484c1.61-2.874 5.001-5.173 9.83-5.173 7.53 0 13.738 5.403 13.738 15.347 0 9.945-6.38 15.751-13.853 15.751m-.747-4.599c5.001 0 8.967-4.139 8.967-11.152s-3.966-10.749-8.967-10.749-9.083 3.909-9.083 10.749 4.139 11.152 9.083 11.152m47.778-4.541c-1.724 6.208-7.76 9.14-13.738 9.14-8.22 0-14.888-6.036-14.888-15.751s6.955-15.347 14.543-15.347 14.371 5.345 14.371 15.807v1.322h-23.396c.518 5.634 4.484 9.37 9.543 9.37 3.506 0 6.61-1.322 8.162-4.541zm-14.198-17.417c-4.598 0-8.45 3.104-8.967 8.22h17.82c-.345-5.001-4.024-8.22-8.853-8.22m39.841 25.924-.057-4.483c-1.84 3.104-5.116 5.116-9.887 5.116-5.461 0-10.75-2.932-10.75-8.968 0-6.495 5.691-8.564 13.969-9.887l6.323-1.034v-.575c0-4.484-2.587-6.266-6.726-6.266s-6.668 1.955-7.358 5.519h-5.288c.805-6.094 6.151-9.887 12.819-9.887s11.899 2.816 11.841 10.806l-.115 13.451c0 .92.058 2.357.288 6.208zm-15.348-8.564c0 3.104 2.759 4.771 6.381 4.771 4.771 0 8.565-3.047 8.565-8.68v-2.472c-10.52 1.322-14.946 2.414-14.946 6.381m48.437 8.564-9.025-15.175-5.69 5.518v9.657H246.9v-41.387h5.346v25.177l13.508-13.566h7.071l-11.037 10.807 11.439 18.969zm11.147-35.237v-6.15h5.518v6.15zm.057 35.237v-29.776h5.404v29.776zm19.273-16.67v16.67h-5.404v-29.776h5.346v4.082c1.84-2.932 5.059-4.771 9.197-4.771 6.554 0 10.75 4.023 10.75 11.841v18.624h-5.404v-17.992c0-4.943-2.701-7.76-6.955-7.76-4.024 0-7.53 2.989-7.53 9.082m54.551 15.866c0 8.105-6.093 12.301-13.566 12.301-7.933 0-12.991-3.966-14.026-9.887h5.346c.977 3.449 3.966 5.403 8.68 5.403s8.163-2.529 8.163-7.817v-5.231c-1.61 2.989-5.116 5.173-9.658 5.173-7.3 0-13.336-5.403-13.336-14.945s6.324-14.658 13.451-14.658c4.369 0 7.761 2.069 9.543 5.058v-4.369h5.403zm-14.026-4.656c4.656 0 8.68-3.794 8.68-10.347s-4.139-10.06-8.68-10.06c-4.886 0-8.737 3.909-8.737 10.06 0 6.15 3.851 10.347 8.737 10.347m56.062 5.46-.058-4.483c-1.839 3.104-5.116 5.116-9.887 5.116-5.461 0-10.749-2.932-10.749-8.968 0-6.495 5.691-8.564 13.968-9.887l6.323-1.034v-.575c0-4.484-2.587-6.266-6.725-6.266-4.139 0-6.668 1.955-7.358 5.519h-5.289c.805-6.094 6.151-9.887 12.819-9.887s11.899 2.816 11.842 10.806l-.115 13.451c0 .92.057 2.357.287 6.208zm-15.348-8.564c0 3.104 2.759 4.771 6.38 4.771 4.771 0 8.565-3.047 8.565-8.68v-2.472c-10.519 1.322-14.945 2.414-14.945 6.381m33.779-8.106v16.67h-5.404v-29.776h5.346v4.082c1.84-2.932 5.059-4.771 9.198-4.771 6.553 0 10.749 4.023 10.749 11.841v18.624h-5.404v-17.992c0-4.943-2.701-7.76-6.955-7.76-4.024 0-7.53 2.989-7.53 9.082m49.613 16.67v-4.713c-1.667 2.989-5.231 5.346-9.715 5.346-7.53 0-13.853-5.519-13.853-15.751s6.553-15.347 13.853-15.347c4.541 0 8.048 2.126 9.715 4.886v-15.808h5.403v41.387zm-8.91-3.966c4.828 0 9.025-4.024 9.025-11.152s-4.082-10.749-9.025-10.749c-5.231 0-9.025 4.081-9.025 10.749s3.794 11.152 9.025 11.152m69.674 3.966-8.852-32.65-8.91 32.65h-6.036l-11.899-40.238h5.806l9.37 32.593 8.737-32.593h6.151l8.737 32.593 9.37-32.593h5.461l-11.899 40.238zm27.493-16.899v16.899h-5.404v-29.776h5.346v4.886c.69-1.149 1.437-2.184 2.587-3.104 1.782-1.437 3.564-2.012 6.036-2.012.69 0 1.379.058 1.897.173v5.231c-1.38-.058-2.012-.058-2.702-.058-3.277 0-7.76 1.437-7.76 7.761m15.311-18.338v-6.15h5.519v6.15zm.058 35.237v-29.776h5.403v29.776zm23.348.058c-4.713 0-7.76-1.437-7.76-7.588v-17.877h-5.231v-4.369h5.231v-7.128h5.346v7.128h7.53v4.369h-7.53v17.13c0 3.276 1.207 3.909 3.736 3.909h3.794v4.311c-2.012.115-2.932.115-5.116.115m11.063-35.295v-6.15h5.518v6.15zm.057 35.237v-29.776h5.404v29.776zm19.268-16.67v16.67h-5.404v-29.776h5.346v4.082c1.84-2.932 5.059-4.771 9.197-4.771 6.554 0 10.75 4.023 10.75 11.841v18.624h-5.404v-17.992c0-4.943-2.701-7.76-6.955-7.76-4.024 0-7.53 2.989-7.53 9.082m54.551 15.866c0 8.105-6.093 12.301-13.566 12.301-7.933 0-12.991-3.966-14.026-9.887h5.346c.977 3.449 3.966 5.403 8.68 5.403s8.163-2.529 8.163-7.817v-5.231c-1.61 2.989-5.116 5.173-9.658 5.173-7.3 0-13.336-5.403-13.336-14.945s6.323-14.658 13.451-14.658c4.369 0 7.761 2.069 9.543 5.058v-4.369h5.403zm-14.026-4.656c4.656 0 8.68-3.794 8.68-10.347s-4.139-10.06-8.68-10.06c-4.886 0-8.737 3.909-8.737 10.06 0 6.15 3.851 10.347 8.737 10.347m46.634 5.518c-4.713 0-7.76-1.437-7.76-7.588v-17.877h-5.231v-4.369h5.231v-7.128h5.346v7.128h7.53v4.369h-7.53v17.13c0 3.276 1.207 3.909 3.737 3.909h3.793v4.311c-2.012.115-2.931.115-5.116.115m36.946-8.565c-1.724 6.208-7.76 9.14-13.738 9.14-8.22 0-14.888-6.036-14.888-15.751s6.955-15.347 14.543-15.347 14.371 5.345 14.371 15.807v1.322h-23.396c.517 5.634 4.484 9.37 9.542 9.37 3.507 0 6.611-1.322 8.163-4.541zm-14.198-17.417c-4.599 0-8.45 3.104-8.967 8.22h17.819c-.345-5.001-4.023-8.22-8.852-8.22m31.563 26.614c-6.61 0-12.186-3.334-12.876-10.002h5.174c.632 3.737 3.851 5.519 7.817 5.519 3.334 0 6.611-1.437 6.611-4.312 0-2.644-2.414-3.793-6.726-4.598l-3.046-.575c-5.691-1.035-9.083-3.621-9.083-8.163 0-5.575 5.174-9.082 11.325-9.082s11.266 3.277 11.956 9.025h-5.116c-.747-2.989-3.391-4.541-7.013-4.541-3.391 0-6.093 1.667-6.093 4.196 0 2.299 1.954 3.219 5.633 3.909l3.047.575c6.265 1.207 10.289 3.621 10.289 8.737 0 5.978-5.748 9.312-11.899 9.312m27.759-.632c-4.713 0-7.76-1.437-7.76-7.588v-17.877h-5.231v-4.369h5.231v-7.128h5.346v7.128h7.53v4.369h-7.53v17.13c0 3.276 1.207 3.909 3.736 3.909h3.794v4.311c-2.012.115-2.931.115-5.116.115m21.755.632c-6.611 0-12.186-3.334-12.876-10.002h5.173c.633 3.737 3.852 5.519 7.818 5.519 3.334 0 6.61-1.437 6.61-4.312 0-2.644-2.414-3.793-6.725-4.598l-3.047-.575c-5.69-1.035-9.082-3.621-9.082-8.163 0-5.575 5.174-9.082 11.324-9.082 6.151 0 11.267 3.277 11.957 9.025h-5.116c-.748-2.989-3.392-4.541-7.013-4.541-3.392 0-6.093 1.667-6.093 4.196 0 2.299 1.954 3.219 5.633 3.909l3.046.575c6.266 1.207 10.29 3.621 10.29 8.737 0 5.978-5.748 9.312-11.899 9.312M373.331 89.812c0-25.93 19.732-43.708 43.383-43.708 20.224 0 37.181 12.395 39.956 31.15.162.492-.324 1.14-.977 1.14h-17.94c-1.306 0-1.63-.325-1.792-.816-2.446-8.643-10.274-13.864-19.409-13.864-12.886 0-21.692 10.765-21.692 26.092s9.135 26.746 21.692 26.746c8.968 0 16.634-4.892 19.409-14.026.162-.491.491-.653.977-.653h18.755c.653 0 1.139.491.977 1.139-3.59 19.57-20.876 31.15-40.285 31.15-23.975 0-43.054-17.448-43.054-44.36zM344.422 16.093c0-.492.324-.978.815-.978h19.246c.654 0 .978.492.978.978v17.616c0 .49-.324.977-.978.977h-19.246c-.491 0-.815-.492-.815-.977zm.167 32.948c0-.491.324-.977.815-.977h18.917c.654 0 .978.49.978.977v82.524c0 .491-.324.815-.978.815h-18.917c-.491 0-.815-.324-.815-.815zM294.841 134.006c-23.976 0-43.87-16.472-43.87-44.523s20.547-43.546 43.054-43.546 42.402 15.494 42.402 45.5v3.26c0 .654-.653 1.307-1.469 1.307h-62.954c1.631 13.373 11.418 21.692 23.485 21.692 7.666 0 15.332-2.607 19.246-9.62.162-.324.491-.492.977-.492h18.593c.653 0 1.139.654.977 1.307-5.706 17.616-23.322 25.115-40.447 25.115zm-1.14-71.76c-11.089 0-20.385 7.013-21.854 18.917h43.055c-.977-11.418-9.458-18.917-21.201-18.917M200.48 134.173c-24.629 0-44.361-17.125-44.361-44.361 0-27.237 20.061-43.708 44.361-43.708s44.361 16.8 44.361 43.708-19.9 44.361-44.361 44.361m0-17.616c13.534 0 22.831-10.603 22.831-26.745S214.014 63.72 200.48 63.72c-13.535 0-22.831 10.603-22.831 26.092s9.134 26.745 22.831 26.745M112.024 109.873v-45.83h-13.21c-.654 0-.978-.49-.978-.977V49.042c0-.491.324-.977.978-.977h13.21v-19.57c0-.492.324-.978.977-.978h18.756c.491 0 .977.491.977.977v19.57h18.431c.653 0 .977.492.977.978v14.026c0 .49-.324.977-.977.977h-18.431v41.748c0 8.805 2.769 10.274 9.458 10.274h8.968c.653 0 .977.491.977.977v14.35c0 .491-.324.977-.815.977-5.545.162-9.135.162-15.819.162-14.349 0-23.484-4.238-23.484-22.669zM73.302 20.828 18.014 76.116c-.492.491-1.307.324-1.63-.491l-3.262-9.95c0-.324 0-.653.324-.977L29.594 48.55H2.034c-.816 0-1.307-.815-.978-1.468l4.73-9.459c.161-.324.49-.49.977-.49h22.83l-19.57-19.571c-.49-.491-.324-1.469.492-1.63l9.95-3.261c.323-.162.815 0 .977.162l16.31 16.309V1.42c0-.816.652-1.307 1.467-.978l9.297 4.73c.324.162.491.653.491.977V28.98l19.57-19.408c.654-.654 1.47-.324 1.793.324l3.099 9.95c.162.323.162.653-.162.977zm11.418 16.31c.815 0 1.306.653.977 1.468l-4.73 9.296c-.161.324-.652.492-.976.492H57.159l19.409 19.57c.653.653.491 1.468-.324 1.792l-9.95 3.261c-.324 0-.815 0-.977-.324l-16.31-16.147v27.56c0 .815-.815 1.306-1.468.977l-9.297-4.729c-.324-.162-.49-.491-.49-.977v-14.35c0-.324 0-.653.161-.815L64.82 37.467c.162-.324.492-.324.654-.324H84.72zM470.639 121.333h2.132c1.097 0 1.62-.517 1.62-1.405 0-.889-.58-1.464-1.62-1.464h-2.132zm0 1.981v3.914h-2.341v-10.687h5.053c2.294 0 3.491 1.563 3.491 3.339 0 1.563-.935 2.556-2.085 2.979v.058c.157.203.261.36.569 1.045l1.824 3.276h-2.712l-1.881-3.49c-.152-.361-.261-.424-.674-.424h-1.254zm9.85-1.354c0-4.384-3.647-8.345-8.131-8.345-4.483 0-8.131 3.903-8.131 8.345s3.642 8.299 8.131 8.299 8.131-3.82 8.131-8.299m-18.561 0c0-5.847 4.64-10.482 10.43-10.482s10.473 4.431 10.473 10.482c0 6.052-4.792 10.42-10.473 10.42-5.68 0-10.43-4.635-10.43-10.42"/></g><defs><clipPath id="a"><path fill="#fff" d="M.951.337h821.362v214.014H.951z"/></clipPath></defs></svg>